<svg xmlns="http://www.w3.org/2000/svg" xmlns:xlink="http://www.w3.org/1999/xlink" width="2339" height="500" viewBox="0 0 2339 500">
  <defs>
    <style>
      .cls-1, .cls-2 {
        fill: #ffb03b;
      }

      .cls-1, .cls-2, .cls-3, .cls-4, .cls-5 {
        fill-rule: evenodd;
      }

      .cls-2 {
        filter: url(#filter);
      }

      .cls-3 {
        fill: #515151;
      }

      .cls-4, .cls-5 {
        fill: #009cd7;
      }

      .cls-5 {
        filter: url(#filter-2);
      }
    </style>
    <filter id="filter" x="178.156" y="-0.781" width="322.5" height="500.781" filterUnits="userSpaceOnUse">
      <feFlood result="flood" flood-color="#009cd7"/>
      <feComposite result="composite" operator="in" in2="SourceGraphic"/>
      <feBlend result="blend" in2="SourceGraphic"/>
    </filter>
    <filter id="filter-2" x="1668.16" y="24.438" width="655.93" height="232.5" filterUnits="userSpaceOnUse">
      <feFlood result="flood" flood-color="#ffb03b"/>
      <feComposite result="composite" operator="in" in2="SourceGraphic"/>
      <feBlend result="blend" in2="SourceGraphic"/>
    </filter>
  </defs>
  <path id="Rectangle_2_copy_4" data-name="Rectangle 2 copy 4" class="cls-1" d="M70.951,0.22h78.734V116.834a34.219,34.219,0,0,1-34.219,34.219H0.7V70.475A70.255,70.255,0,0,1,70.951.22Zm280.111,0H429.8a70.256,70.256,0,0,1,70.256,70.255v80.578H385.281a34.219,34.219,0,0,1-34.219-34.219V0.22ZM0.393,348.53h105.08a43.91,43.91,0,0,1,43.909,43.91V499.364h-75.4A73.586,73.586,0,0,1,.393,425.778V348.53Zm42.4-172.944h66.319a41.79,41.79,0,0,1,41.789,41.79v66.346a41.789,41.789,0,0,1-41.789,41.789H42.788A41.789,41.789,0,0,1,1,283.722V217.376A41.79,41.79,0,0,1,42.788,175.586Z"/>
  <path id="Rectangle_2_copy_5" data-name="Rectangle 2 copy 5" class="cls-2" d="M392.549,175.586h66.319a41.79,41.79,0,0,1,41.789,41.79v66.346a41.789,41.789,0,0,1-41.789,41.789H392.549a41.788,41.788,0,0,1-41.789-41.789V217.376A41.789,41.789,0,0,1,392.549,175.586ZM219.94-.788h66.318c23.08,0,41.317,17.933,41.317,41.017V500l-77.353-.636c-39.8,0-72.072-33.485-72.072-73.3V41.01A41.794,41.794,0,0,1,219.94-.788ZM327.575,348.659H499.983V426.01c0,39.805-32.99,73.99-72.8,73.99H327.575V348.659Z"/>
  <path id="numberland" data-name="Cumberland" class="cls-3" d="M610.22,337.218h-7.336l0.383,61.817h6.515Zm-3.23,89.248,7.883-7.884-7.993-7.994-7.773,7.884Zm86.932-51.3a30.435,30.435,0,0,0-5.748.547,34.792,34.792,0,0,0-6.131,1.753,30.656,30.656,0,0,0-5.612,2.874,31.861,31.861,0,0,0-4.9,3.915,30.218,30.218,0,0,0-8.048,13.688,24.566,24.566,0,0,0-1.04,5.969v2.3a30.189,30.189,0,0,0,1.04,7.83l0.493,1.862,31.7,8.541q0.108,1.1.109,2.245,0,0.822-.055,1.643a25.95,25.95,0,0,1-.684,4.243,22.269,22.269,0,0,1-1.423,4.052,13.182,13.182,0,0,1-2.272,3.422,17.666,17.666,0,0,1-7.117,4.654,32.553,32.553,0,0,1-11.058,1.588H659.652a23.817,23.817,0,0,1-11.414-2.738,21.869,21.869,0,0,1-8.293-7.775,24.469,24.469,0,0,1-3.312-8.1,39.752,39.752,0,0,1-.849-7.94q0-1.587.11-3.285a56.912,56.912,0,0,1,2.217-11.964,83.805,83.805,0,0,1,5.119-13.113l-6.077-2.9q-7.61,15.77-8.1,29.293Q629,418.8,629,419.841a40.643,40.643,0,0,0,1.04,9.2,32.457,32.457,0,0,0,4.215,10.294,28.9,28.9,0,0,0,4.845,5.831,30,30,0,0,0,6.049,4.326,28.756,28.756,0,0,0,6.843,2.655,30.121,30.121,0,0,0,7.227.877h13.959a56.726,56.726,0,0,0,6.98-.411,30.487,30.487,0,0,0,6.295-1.451,24.253,24.253,0,0,0,5.584-2.793,22.286,22.286,0,0,0,4.79-4.435,18.287,18.287,0,0,0,2.655-4.352,30.787,30.787,0,0,0,1.7-4.983,39.028,39.028,0,0,0,.9-4.955,38.449,38.449,0,0,0,.273-4.271,16.947,16.947,0,0,0-.164-2.409,5.56,5.56,0,0,0-.766-2.136,5.823,5.823,0,0,0-1.889-1.806,12.9,12.9,0,0,0-3.476-1.424q-1.314-.328-3.5-0.931t-4.844-1.314q-2.656-.711-5.475-1.478t-5.337-1.424q-2.519-.657-4.462-1.177t-2.819-.794a24.158,24.158,0,0,1-.438-4.545,23.179,23.179,0,0,1,1.1-7.063,22.556,22.556,0,0,1,5.967-9.8,24.038,24.038,0,0,1,8.293-5.365,27.5,27.5,0,0,1,9.991-1.807,32.6,32.6,0,0,1,8.978,1.314l1.861-6.461a38.162,38.162,0,0,0-10.894-1.588h-0.547Zm25.4,77.969q15.327,0,23.184-8.1t7.856-23.982V385.894h-6.734v35.151q0,12.429-5.474,18.671-5.969,6.735-18.832,6.735h-7.609v6.68h7.609ZM746.2,369.358l7.117-7.118-7.226-7.227-7.008,7.118ZM788,423v-7h-1a22.128,22.128,0,0,1-6.394-.622,6.836,6.836,0,0,1-3.914-2.628,10.894,10.894,0,0,1-1.643-5.174q-0.327-3.285-.328-8.377v-54.48h-6.843V399.2a69.592,69.592,0,0,0,.657,10.157,17.373,17.373,0,0,0,2.737,7.419,12.635,12.635,0,0,0,6,4.544A30.642,30.642,0,0,0,788,423h0Zm0-7v7h22v-7H788Zm22,0v7h23v-7H810Zm23,0v7h22v-7H833Zm105,0h-2a22.945,22.945,0,0,1-6.031-.649,14.926,14.926,0,0,1-4.927-2.272,10.967,10.967,0,0,1-3.285-3.751,10.711,10.711,0,0,1-1.2-5.147q1.916-1.368,3.914-2.792t4.078-2.957l-0.93-6.077q-0.878-.328-2.929-1.178t-4.927-2.053q-2.874-1.2-6.323-2.628t-7.117-2.875q-3.667-1.449-7.335-2.792t-6.953-2.382q-3.284-1.039-5.939-1.67a19.736,19.736,0,0,0-4.353-.629,14.322,14.322,0,0,0-5.994,1.231,16.965,16.965,0,0,0-4.845,3.313,20.016,20.016,0,0,0-3.64,4.873,26.544,26.544,0,0,0-2.327,5.968l6.515,1.7a16.13,16.13,0,0,1,4.023-7.611,8.629,8.629,0,0,1,6.214-2.738,16.271,16.271,0,0,1,3.7.6q2.382,0.6,5.5,1.616t6.815,2.382q3.7,1.368,7.637,2.847t7.965,3.039q4.024,1.56,7.8,2.984-5.091,3.449-9.689,6.269a101.293,101.293,0,0,1-9.17,5.01,81.122,81.122,0,0,1-9.416,3.805,77.935,77.935,0,0,1-10.456,2.656,113.5,113.5,0,0,1-12.262,1.533C865.672,415.953,860.839,416,855,416v7c5.328,0,9.769-.293,13.93-0.586s8.019-.712,11.578-1.259a91.958,91.958,0,0,0,9.908-2.053,78.138,78.138,0,0,0,8.677-2.875A80.169,80.169,0,0,0,907,412.559q3.8-2.025,7.527-4.381a16.977,16.977,0,0,0,2,5.832,15.971,15.971,0,0,0,3.969,4.626,13.709,13.709,0,0,0,3.148,1.78,28.37,28.37,0,0,0,4.051,1.341,35.7,35.7,0,0,0,4.352.822A33.9,33.9,0,0,0,936,423h2v-7Zm-44.491,32.915,6.351-6.351-6.46-6.407-6.241,6.3Zm84.634-30.224a13.3,13.3,0,0,1-3.668-.548,32.487,32.487,0,0,1-4.818-1.752q-2.574-1.149-5.584-2.737t-6.514-3.34q0.657-1.808,1.2-3.724t1.095-3.942q1.2-4.38,2.409-7.857a24.177,24.177,0,0,1,2.874-5.886,11.567,11.567,0,0,1,4.078-3.7,12.559,12.559,0,0,1,5.967-1.286,8.115,8.115,0,0,1,3.066.574,12.383,12.383,0,0,1,2.573,1.4,12.629,12.629,0,0,1,2,1.752,18.776,18.776,0,0,1,1.4,1.7,20.737,20.737,0,0,1,2.984,6,21.944,21.944,0,0,1,1.067,6.652,30.927,30.927,0,0,1-.848,7.8,16.938,16.938,0,0,1-2.19,5.174,8.336,8.336,0,0,1-3.066,2.847,7.5,7.5,0,0,1-3.421.876h-0.6Zm-18.777-33.235a28.867,28.867,0,0,0-3.586,7.391q-1.287,4-2.381,8.049-0.933,3.285-1.862,6.269a22.624,22.624,0,0,1-2.244,5.12,8.173,8.173,0,0,1-2.71,2.929A6.724,6.724,0,0,1,943,416h-5v7l4.942-.148a13.26,13.26,0,0,0,11.716-6.461q3.886,1.971,7.116,3.614t6.1,2.847a41.172,41.172,0,0,0,5.5,1.889,21.206,21.206,0,0,0,5.365.685,14.155,14.155,0,0,0,5.365-.958,13.97,13.97,0,0,0,4.16-2.6,15.862,15.862,0,0,0,3.093-3.888,23.338,23.338,0,0,0,2.08-4.873,35.148,35.148,0,0,0,1.177-5.448,42.094,42.094,0,0,0,.384-5.667,28.384,28.384,0,0,0-1.4-8.76,27.31,27.31,0,0,0-3.969-7.83,21.194,21.194,0,0,0-6.6-6.105,15.61,15.61,0,0,0-7.856-2.108,18.068,18.068,0,0,0-15.82,8.268h0Zm118.084,36.027a21.988,21.988,0,0,0,7.11-4,19.339,19.339,0,0,0,5.18-6.433,17.492,17.492,0,0,0,1.77-7.748,18.936,18.936,0,0,0-.98-6.105,30.592,30.592,0,0,0-2.71-5.831,52.631,52.631,0,0,0-4.08-5.859q-2.355-2.957-5.09-6.077-2.25-2.628-4.65-5.311t-4.41-4.873c-1.33-1.46-2.43-2.656-3.28-3.587a16.8,16.8,0,0,0-1.35-1.4l-4.92,4.49,4.27,4.763c-0.51.548-1.09,1.142-1.73,1.78s-1.28,1.314-1.94,2.026-1.31,1.433-1.97,2.162-1.26,1.424-1.81,2.081c-0.98,1.205-2.08,2.546-3.28,4.025a36.471,36.471,0,0,0-3.37,4.927,30.591,30.591,0,0,0-2.6,5.941,23.047,23.047,0,0,0-1.04,7.063,16.456,16.456,0,0,0,1.78,7.529,19.8,19.8,0,0,0,4.82,6.16,22.759,22.759,0,0,0,7.11,4.134,25.026,25.026,0,0,0,8.74,1.5A25.873,25.873,0,0,0,1077.45,421.483Zm-3.89-37.67q2.79,3.231,4.9,5.886a47.78,47.78,0,0,1,3.5,4.983,23.434,23.434,0,0,1,2.11,4.435,13.147,13.147,0,0,1,.71,4.188,10.612,10.612,0,0,1-1.23,4.983,12.786,12.786,0,0,1-3.37,4.079,16.659,16.659,0,0,1-5.01,2.738,18.343,18.343,0,0,1-6.15,1.013,18.793,18.793,0,0,1-6.05-.986,16.582,16.582,0,0,1-5.23-2.847,12.451,12.451,0,0,1-3.29-4.025,10.439,10.439,0,0,1-1.15-4.736,16.571,16.571,0,0,1,.88-5.393,25.229,25.229,0,0,1,2.19-4.763,32.582,32.582,0,0,1,2.87-4.107q1.56-1.889,2.88-3.477,0.7-.874,1.56-1.834c0.56-.638,1.15-1.277,1.75-1.916s1.19-1.26,1.78-1.862,1.13-1.158,1.64-1.67Zm20.53,69.318q15.33,0,23.18-8.1t7.86-23.982V385.894h-6.74v35.151q0,12.429-5.47,18.671-5.97,6.735-18.83,6.735h-7.61v6.68h7.61ZM1163,423v-7h-1a24,24,0,0,1-6.63-.622,6.819,6.819,0,0,1-3.91-2.628,10.862,10.862,0,0,1-1.64-5.174q-0.33-3.285-.33-8.377v-54.48h-6.85V399.2a69.281,69.281,0,0,0,.66,10.157,17.362,17.362,0,0,0,2.74,7.419,12.636,12.636,0,0,0,5.99,4.544A26.193,26.193,0,0,0,1162,423h1Zm0-7v7h22v-7h-22Zm22,0v7h23l-0.05-6.937Zm23,0v7h21v-7h-21Zm89,7v-7h-2a14.347,14.347,0,0,1-4.31-.43,7.882,7.882,0,0,1-3.14-1.752q-3.51-3.229-3.51-11.827a28.653,28.653,0,0,0-1.37-8.76,26.011,26.011,0,0,0-3.99-7.83,20.578,20.578,0,0,0-6.57-6.105,15.654,15.654,0,0,0-7.83-2.108q-10.29,0-15.88,8.268a24.324,24.324,0,0,0-1.99,3.559q-0.855,1.861-1.56,3.832-0.72,1.971-1.29,4c-0.38,1.351-.76,2.7-1.12,4.052q-0.93,3.285-1.84,6.269a21.974,21.974,0,0,1-2.21,5.12,8.65,8.65,0,0,1-2.77,2.929,6.951,6.951,0,0,1-3.64.9L1229,416v7l2.98-.148a13.472,13.472,0,0,0,11.77-6.461c2.52,1.351,4.85,2.583,7.01,3.7s4.19,2.063,6.13,2.847a40.244,40.244,0,0,0,5.58,1.835,22.521,22.521,0,0,0,5.37.657,13.262,13.262,0,0,0,4.05-.63,15.283,15.283,0,0,0,3.72-1.779,15.038,15.038,0,0,0,3.15-2.765,16.091,16.091,0,0,0,2.33-3.587,11.155,11.155,0,0,0,1.91,2.081,14.985,14.985,0,0,0,5.28,3.093A19.455,19.455,0,0,0,1295,423h2Zm-29.49-4.309a15.345,15.345,0,0,1-3.89-.548,34.887,34.887,0,0,1-4.9-1.724q-2.6-1.122-5.58-2.683t-6.49-3.422c0.4-1.205.79-2.445,1.15-3.724s0.75-2.591,1.15-3.942c0.77-2.92,1.55-5.538,2.36-7.857a24.248,24.248,0,0,1,2.87-5.886,11.514,11.514,0,0,1,4.08-3.7,12.661,12.661,0,0,1,6.02-1.286,7.93,7.93,0,0,1,3.04.574,12.453,12.453,0,0,1,2.54,1.4,12.216,12.216,0,0,1,2,1.752,19.059,19.059,0,0,1,1.4,1.7,20.856,20.856,0,0,1,2.98,6,21.98,21.98,0,0,1,1.07,6.652,32.251,32.251,0,0,1-.82,7.8,16.164,16.164,0,0,1-2.19,5.174,8.7,8.7,0,0,1-3.07,2.847,7.326,7.326,0,0,1-3.39.876h-0.33ZM1297,423l7.02-.148a19.418,19.418,0,0,0,6.76-1.177,17.518,17.518,0,0,0,5.72-3.422q0.615-.546,1.26-1.232a12.028,12.028,0,0,0,1.26-1.56c0.26,0.365.51,0.711,0.77,1.04a9.544,9.544,0,0,0,.82.931q5.415,5.419,15.33,5.42a20.632,20.632,0,0,0,6.9-1.177,17.4,17.4,0,0,0,5.85-3.422q0.6-.546,1.26-1.232a12.028,12.028,0,0,0,1.26-1.56c0.26,0.365.51,0.711,0.77,1.04a9.544,9.544,0,0,0,.82.931q5.415,5.419,15.22,5.42V422.8a18.8,18.8,0,0,0,6.51-1.232,17.255,17.255,0,0,0,5.48-3.368,16.687,16.687,0,0,0,2-2.19,18.065,18.065,0,0,0,1.86-3.066,18.843,18.843,0,0,0,1.36-4.024,22.533,22.533,0,0,0,.53-5.065,36.337,36.337,0,0,0-.36-4.846q-0.36-2.655-.88-5.366c-0.34-1.807-.72-3.567-1.12-5.283s-0.78-3.249-1.15-4.6-0.67-2.464-.93-3.34-0.4-1.369-.44-1.478l-6.4,1.971q0,0.055.33,1.232t0.84,3.066c0.35,1.26.72,2.693,1.1,4.3s0.75,3.258,1.09,4.956,0.63,3.358.85,4.982a33.137,33.137,0,0,1,.33,4.408,14.057,14.057,0,0,1-1.04,5.722,11.083,11.083,0,0,1-2.65,3.778,9.721,9.721,0,0,1-3.62,2.08,13.108,13.108,0,0,1-3.97.63v0.055q-13.125-.165-13.13-12.21V385.894h-6.74v18.014a13.714,13.714,0,0,1-1.06,5.721,10.647,10.647,0,0,1-2.77,3.751,10.973,10.973,0,0,1-3.75,2.081,13.339,13.339,0,0,1-4.08.657q-13.14-.165-13.14-12.21V385.894h-6.73v18.014a13.708,13.708,0,0,1-1.07,5.721,10.508,10.508,0,0,1-2.76,3.751,10.973,10.973,0,0,1-3.75,2.081,13.339,13.339,0,0,1-4.08.657L1297,416v7Zm43.76-68.152-6.85,6.9,6.79,6.735,6.79-6.844Zm21.95-.219-6.84,6.845,6.89,6.789,6.79-6.789Zm-10.84-14.893-6.84,6.845,6.89,6.789,6.79-6.789ZM1524,416c-1.75,0-5.4-.184-6.86-0.786a11.132,11.132,0,0,1-3.75-2.491,11.294,11.294,0,0,1-2.44-3.833,13.68,13.68,0,0,1-.87-4.982V385.839h-6.74V425.59q0,9.855-4.16,14.674-5.19,6.078-18.45,6.078h-12.86a23.146,23.146,0,0,1-11.06-2.656,21.164,21.164,0,0,1-8.05-7.529,23.625,23.625,0,0,1-3.28-7.939,38.223,38.223,0,0,1-.82-7.611c0-1.167.05-2.372,0.16-3.613a56.392,56.392,0,0,1,2.33-11.854,91.4,91.4,0,0,1,5.17-13.114l-6.02-2.9a96.53,96.53,0,0,0-6.02,15.386,59.985,59.985,0,0,0-2.41,14.236c-0.04.694-.05,1.387-0.05,2.08a35.59,35.59,0,0,0,1.15,9.309,33.217,33.217,0,0,0,4.1,9.581,27.518,27.518,0,0,0,10.46,9.883,29.73,29.73,0,0,0,14.34,3.477h12.86a59.066,59.066,0,0,0,6.77-.383,33.752,33.752,0,0,0,6.32-1.341,26.062,26.062,0,0,0,5.66-2.574,19.622,19.622,0,0,0,4.79-4.134q5.805-6.681,5.81-19.054V418.8a18.124,18.124,0,0,0,5.47,3.011,19.474,19.474,0,0,0,6.41,1.04L1524,423v-7h0Zm-45.95-27.04,7.12-7.118-7.23-7.228-7,7.118ZM1572,416a14.874,14.874,0,0,1-3.98-.43,10.914,10.914,0,0,1-3.8-1.807,9.732,9.732,0,0,1-2.79-3.285,10.25,10.25,0,0,1-1.1-4.983V385.839h-6.73V405.5a13.034,13.034,0,0,1-1.07,5.12,8,8,0,0,1-2.71,3.2,11.267,11.267,0,0,1-4.27,1.7,36.634,36.634,0,0,1-5.75.6L1524,416v7l15.8-.148a29.9,29.9,0,0,0,10.24-1.642,16.078,16.078,0,0,0,7.01-5.092,14.04,14.04,0,0,0,2.46,2.518,17.8,17.8,0,0,0,5.75,3.121A20.58,20.58,0,0,0,1572,423h9v-7h-9Zm-6.91,28.206-6.89-6.844-6.68,6.789L1558.3,451Zm-22.33-.109-6.9-6.845-6.68,6.79,6.79,6.844Zm76.31-25.406a13.326,13.326,0,0,1-3.67-.548,32.587,32.587,0,0,1-4.82-1.752q-2.565-1.149-5.58-2.737t-6.51-3.34q0.645-1.808,1.2-3.724c0.36-1.277.73-2.591,1.09-3.942q1.215-4.38,2.41-7.857a24.252,24.252,0,0,1,2.88-5.886,11.514,11.514,0,0,1,4.08-3.7,12.518,12.518,0,0,1,5.96-1.286,8.12,8.12,0,0,1,3.07.574,12.184,12.184,0,0,1,2.57,1.4,12.647,12.647,0,0,1,2,1.752,19.059,19.059,0,0,1,1.4,1.7,20.856,20.856,0,0,1,2.98,6,21.98,21.98,0,0,1,1.07,6.652,31.15,31.15,0,0,1-.85,7.8,17.113,17.113,0,0,1-2.19,5.174,8.384,8.384,0,0,1-3.07,2.847,7.505,7.505,0,0,1-3.42.876h-0.6Zm-18.78-33.235a28.72,28.72,0,0,0-3.58,7.391c-0.86,2.665-1.66,5.348-2.38,8.049q-0.945,3.285-1.87,6.269a22.4,22.4,0,0,1-2.24,5.12,8.173,8.173,0,0,1-2.71,2.929,6.951,6.951,0,0,1-3.64.9L1581,416v7h3c5,0,8.77-2.3,11.58-6.609q3.9,1.971,7.12,3.614c2.15,1.1,4.19,2.045,6.1,2.847a41.068,41.068,0,0,0,5.51,1.889,21.19,21.19,0,0,0,5.36.685,14.167,14.167,0,0,0,5.37-.958,14.021,14.021,0,0,0,4.16-2.6,16.017,16.017,0,0,0,3.09-3.888,23.232,23.232,0,0,0,2.08-4.873,35.622,35.622,0,0,0,1.18-5.448,42.926,42.926,0,0,0,.38-5.667,28.389,28.389,0,0,0-1.4-8.76,27.39,27.39,0,0,0-3.96-7.83,21.3,21.3,0,0,0-6.6-6.105,15.6,15.6,0,0,0-7.86-2.108,18.068,18.068,0,0,0-15.82,8.268h0Zm39.58,67.675q15.33,0,23.19-8.1,7.845-8.1,7.85-23.982V385.894h-6.73v35.151q0,12.429-5.48,18.671-5.955,6.735-18.83,6.735h-7.61v6.68h7.61Zm26.88-83.773,7.12-7.118-7.23-7.227-7.01,7.118ZM1736,416l-2.47.118a16.553,16.553,0,0,1-4.18-.548,11.19,11.19,0,0,1-3.84-1.807,9.783,9.783,0,0,1-2.81-3.285,10.364,10.364,0,0,1-1.1-4.983v-19.6h-6.73v35.151q0,12.429-5.48,18.671-5.97,6.735-18.83,6.735h-7.61v6.68h7.61q15.33,0,23.19-8.1,7.845-8.1,7.85-23.982v-1.806a19.057,19.057,0,0,0,5.5,2.682,21.812,21.812,0,0,0,6.43.931L1736,423v-7Zm0,7h8a18.264,18.264,0,0,0,6.53-1.325,17.622,17.622,0,0,0,5.72-3.422q0.6-.546,1.26-1.232a12.028,12.028,0,0,0,1.26-1.56c0.26,0.365.51,0.711,0.77,1.04a9.544,9.544,0,0,0,.82.931q5.415,5.419,15.33,5.42a20.531,20.531,0,0,0,6.89-1.177,17.353,17.353,0,0,0,5.86-3.422q0.6-.546,1.26-1.232a12.028,12.028,0,0,0,1.26-1.56c0.25,0.365.51,0.711,0.77,1.04a8.379,8.379,0,0,0,.82.931q5.415,5.419,15.22,5.42V422.8a18.8,18.8,0,0,0,6.51-1.232,17.21,17.21,0,0,0,5.47-3.368,15.4,15.4,0,0,0,2-2.19,16.861,16.861,0,0,0,1.86-3.066,18.3,18.3,0,0,0,1.37-4.024,22.559,22.559,0,0,0,.52-5.065,37.956,37.956,0,0,0-.35-4.846q-0.36-2.655-.88-5.366t-1.12-5.283c-0.4-1.716-.79-3.249-1.15-4.6s-0.68-2.464-.93-3.34-0.4-1.369-.44-1.478l-6.4,1.971c0,0.037.11,0.448,0.32,1.232s0.51,1.807.85,3.066,0.71,2.693,1.1,4.3,0.75,3.258,1.09,4.956,0.63,3.358.85,4.982a33.137,33.137,0,0,1,.33,4.408,14.057,14.057,0,0,1-1.04,5.722,10.968,10.968,0,0,1-2.66,3.778,9.683,9.683,0,0,1-3.61,2.08,13.108,13.108,0,0,1-3.97.63v0.055q-13.14-.165-13.14-12.21V385.894h-6.73v18.014a13.708,13.708,0,0,1-1.07,5.721,10.508,10.508,0,0,1-2.76,3.751,10.973,10.973,0,0,1-3.75,2.081,13.339,13.339,0,0,1-4.08.657q-13.14-.165-13.14-12.21V385.894h-6.73v18.014a13.708,13.708,0,0,1-1.07,5.721,10.508,10.508,0,0,1-2.76,3.751,11.161,11.161,0,0,1-3.75,2.081A15.978,15.978,0,0,1,1744,416h-8v7Zm153.77-11.81a6.521,6.521,0,0,0-4.76-2.026,6.908,6.908,0,0,0-6.84,6.844,6.514,6.514,0,0,0,2.02,4.764,6.806,6.806,0,0,0,9.58,0,6.558,6.558,0,0,0,0-9.582h0Zm-2.52-27.486a17.827,17.827,0,0,0-4.7.766q0-7.884,7.39-12.648c-0.95-.767-1.84-1.478-2.66-2.135s-1.6-1.241-2.33-1.753q-10.065,6.462-10.07,19.383a13.872,13.872,0,0,0,2.63,8.651,10.025,10.025,0,0,0,15.11.657,7.623,7.623,0,0,0,2.13-4.982q0-7.938-7.5-7.939h0ZM1969,413c-1.64,0-2.49-.943-3.86-1.838a20.193,20.193,0,0,1-3.91-3.394,39.184,39.184,0,0,1-3.54-4.545q-1.665-2.49-3.31-4.846l-21.24-32.414-8.7,5.695,20.53,31.264a14.369,14.369,0,0,1,1.69,3.258,6.812,6.812,0,0,1,.39,1.779,1.966,1.966,0,0,1-.5,1.369,4.873,4.873,0,0,1-2.6,2.053,21.138,21.138,0,0,1-5.22,1.4,38.758,38.758,0,0,1-4.71.41q-1.98.029-2.79,0.028-2.355,0-4.71-.219a38.653,38.653,0,0,1-5.89-.959,18.334,18.334,0,0,1-4.68-1.779l-4.54-2.628-5.15,9.034,4.49,2.628a26.021,26.021,0,0,0,4.55,2,39.7,39.7,0,0,0,5.22,1.369,54.555,54.555,0,0,0,5.56.766q2.85,0.246,5.64.247c1.53,0,3.01-.055,4.43-0.165s2.78-.255,4.05-0.438q10.29-1.478,14.4-7.008c4.6,4.526,9.96,6.937,15.4,6.937h1V413h-2Zm2,10h22s0.02-.33.02-0.695L1993,413h-22v10Zm22-1v1h21V413h-21v9Zm21-9v10h23V413h-23Zm64,0c-0.29,0-1.42.037-2,0s-1.3-.754-2-1a13.721,13.721,0,0,1-1.69-.7,7.269,7.269,0,0,1-3.7-3.887,8.873,8.873,0,0,1-.6-3.45V385.839h-10.29v18.507a11.485,11.485,0,0,1-.36,2.765,5.622,5.622,0,0,1-1.53,2.628,9.026,9.026,0,0,1-3.48,1.971A18.856,18.856,0,0,1,2046,413h-9v10l9.11-.148q11.175,0,16.86-5.694a13.958,13.958,0,0,0,6.11,4.271,24.935,24.935,0,0,0,8.78,1.423L2082,423V413h-4Zm-19.02-42.875,9.41-9.418-9.52-9.527-9.31,9.418ZM2082,423a45.888,45.888,0,0,0,6.32-.5,29.887,29.887,0,0,0,5.26-1.095,20.556,20.556,0,0,0,4.18-1.807,18.531,18.531,0,0,0,3.42-2.546,14.942,14.942,0,0,0,2.8-3.641,18.644,18.644,0,0,0,1.58-3.969,22.077,22.077,0,0,0,.72-4.025c0.11-1.332.16-2.618,0.16-3.86V344.664h-10.29v56.889a19.8,19.8,0,0,1-.52,5.01,6.243,6.243,0,0,1-1.62,2.929,9.358,9.358,0,0,1-4.35,2.273A27.464,27.464,0,0,1,2082,413h0v10Zm67-10a27.45,27.45,0,0,1-3,0c-1.05-.065-2.02-0.949-3.1-1.7a11.78,11.78,0,0,1-2.99-2.546,7.917,7.917,0,0,1-1.28-4.791V385.839h-10.35v34.166A36.657,36.657,0,0,1,2127,430.3a16.953,16.953,0,0,1-4,7.118,16.45,16.45,0,0,1-6.84,4.134,31.851,31.851,0,0,1-9.78,1.341h-7.55v10.349h7.55a39.949,39.949,0,0,0,13.77-2.191,26.685,26.685,0,0,0,10.1-6.378,27.389,27.389,0,0,0,6.24-10.212,40.657,40.657,0,0,0,2.14-13.688,22.486,22.486,0,0,0,9.69,2.08L2149,423V413Zm42,0a12.652,12.652,0,0,1-4-1,8.193,8.193,0,0,1-1.81-.7,7.269,7.269,0,0,1-3.7-3.887,8.873,8.873,0,0,1-.6-3.45V385.839H2170.6v18.507a11.485,11.485,0,0,1-.36,2.765,5.622,5.622,0,0,1-1.53,2.628,9.026,9.026,0,0,1-3.48,1.971A18.088,18.088,0,0,1,2159,413h-10v10h10c7.45,0,13.06-2.045,16.85-5.842a13.958,13.958,0,0,0,6.11,4.271,24.935,24.935,0,0,0,8.78,1.423L2195,423V413h-4Zm-20.79,39.857,9.42-9.417-9.53-9.527-9.3,9.417Zm58.72-38.245a31.153,31.153,0,0,1-3.92-1.424c-1.39-.6-2.88-1.322-4.49-2.162s-3.35-1.734-5.25-2.683q0.87-2.519,1.53-5.065t1.31-4.873c0.44-1.551.92-2.993,1.43-4.326a13.657,13.657,0,0,1,1.91-3.477,8.371,8.371,0,0,1,2.82-2.327,8.98,8.98,0,0,1,4.08-.848,9.689,9.689,0,0,1,4.38.9,9.984,9.984,0,0,1,3.07,2.327,11.711,11.711,0,0,1,1.99,3.121,19.559,19.559,0,0,1,1.13,3.313,20.322,20.322,0,0,1,.49,2.929c0.07,0.876.11,1.515,0.11,1.916a32.256,32.256,0,0,1-.41,5.558,16.966,16.966,0,0,1-1.04,3.723,7.371,7.371,0,0,1-1.42,2.245,5.921,5.921,0,0,1-1.59,1.177,4.175,4.175,0,0,1-1.48.438c-0.46.037-.81,0.055-1.07,0.055A13.032,13.032,0,0,1,2228.93,414.612Zm-8.49-35.946a17.746,17.746,0,0,0-5.53,4,22.114,22.114,0,0,0-3.75,5.64,56.036,56.036,0,0,0-2.54,6.515c-0.72,2.227-1.34,4.4-1.89,6.516a46.718,46.718,0,0,1-1.81,5.64,13.768,13.768,0,0,1-2.33,4A5.2,5.2,0,0,1,2199,413h-4v10l4.17-.148a14.425,14.425,0,0,0,11.55-5.311q3.405,1.863,6.22,3.34a54.589,54.589,0,0,0,5.39,2.491,33.372,33.372,0,0,0,5.04,1.561,23.637,23.637,0,0,0,5.14.547,19.986,19.986,0,0,0,3.01-.273,14.967,14.967,0,0,0,3.64-1.095,14.786,14.786,0,0,0,3.73-2.41,15.907,15.907,0,0,0,3.31-4.188,24.439,24.439,0,0,0,2.38-6.434,40.462,40.462,0,0,0,.9-9.144,33.92,33.92,0,0,0-1.28-9.308,23.86,23.86,0,0,0-3.92-7.939,19.36,19.36,0,0,0-6.59-5.5,20.092,20.092,0,0,0-9.34-2.053A18.49,18.49,0,0,0,2220.44,378.666ZM2291,413a28.334,28.334,0,0,1-7.17-1.126,6.545,6.545,0,0,1-3.88-2.19,8.608,8.608,0,0,1-1.59-4.572q-0.3-2.957-.3-7.72V344.719h-10.35v52.673q0,4.27.27,7.775a29.628,29.628,0,0,0,1.15,6.324,16.515,16.515,0,0,0,2.44,4.928,12.359,12.359,0,0,0,4.16,3.5,22.642,22.642,0,0,0,6.35,2.135A44.738,44.738,0,0,0,2291,423V413Zm18.04-31.706c0.15,0.512.33,1.279,0.55,2.3s0.46,2.19.71,3.5,0.51,2.711.77,4.189,0.48,2.921.68,4.325,0.37,2.72.49,3.943a29.956,29.956,0,0,1,.2,3.038,11.108,11.108,0,0,1-1.13,5.476,11.863,11.863,0,0,1-2.62,2.957c-1.91,1.738-5.14,1.974-5.69,1.974h-12v10l12.35-.148a20.972,20.972,0,0,0,6.95-1.2,18.081,18.081,0,0,0,6.21-3.7,18.662,18.662,0,0,0,4.49-6.3,21.806,21.806,0,0,0,1.73-9.062,36.37,36.37,0,0,0-.28-4.216c-0.18-1.605-.4-3.275-0.65-5.009s-0.55-3.45-.88-5.147-0.63-3.249-.9-4.654-0.52-2.582-.74-3.532-0.37-1.533-.44-1.752Zm1.15-16.1,9.42-9.418-9.53-9.527-9.3,9.418Z"/>
  <path id="NumberLand" class="cls-4" d="M776.367,40.168H744.954V192.854L630.173,43.041a14.391,14.391,0,0,0-8.1-5.518,12.992,12.992,0,0,0-9.182,1.134,18.474,18.474,0,0,0-6.947,7.332,22.254,22.254,0,0,0-2.719,10.96v200h31.414V104.266L749.424,254.23a13.9,13.9,0,0,0,11.116,5.745,13.154,13.154,0,0,0,6.162-1.512,15.611,15.611,0,0,0,5.014-4.157,21.129,21.129,0,0,0,3.383-6.274,23.645,23.645,0,0,0,1.268-7.861v-200ZM951.56,93.533H920.146V217.646H865.172A24.129,24.129,0,0,1,854.6,215.3a24.931,24.931,0,0,1-8.518-6.727,33.376,33.376,0,0,1-5.739-10.507,42.211,42.211,0,0,1-2.115-13.832v-90.7H806.815v90.7a96.172,96.172,0,0,0,2.718,23.885,79.14,79.14,0,0,0,7.189,18.67,56.212,56.212,0,0,0,10.451,13.757,66.251,66.251,0,0,0,12.384,9.373,51.529,51.529,0,0,0,25.373,7.03h71.044a12.786,12.786,0,0,0,6.1-1.512,15.82,15.82,0,0,0,4.954-4.157,20.161,20.161,0,0,0,3.322-6.274,24.751,24.751,0,0,0,1.209-7.861V93.533Zm146.07,55.027a74.107,74.107,0,0,0-1.57-15.722h28.28c4.26,0,7.43,1.337,9.48,4.006s3.08,6.576,3.08,11.716V256.952h31.41V148.56a73.214,73.214,0,0,0-2.05-18.141,59.741,59.741,0,0,0-5.44-14.135,43.583,43.583,0,0,0-7.85-10.431,45.2,45.2,0,0,0-9.36-7.029,42.148,42.148,0,0,0-9.85-4.006,37.647,37.647,0,0,0-9.42-1.285h-42.53v12.094a44.023,44.023,0,0,0-14.26-9.222,39.365,39.365,0,0,0-14.02-2.872H996.868a13.159,13.159,0,0,0-6.162,1.512,16.3,16.3,0,0,0-5.075,4.157,19.61,19.61,0,0,0-3.383,6.2,23.545,23.545,0,0,0-1.208,7.634V256.952h31.41V132.838h40.84q6.4,0,9.67,4.006t3.26,11.716V256.952h31.41V148.56Zm243.58,0a73.214,73.214,0,0,0-2.05-18.141,60.174,60.174,0,0,0-5.44-14.135,43.847,43.847,0,0,0-7.85-10.431,44.992,44.992,0,0,0-9.37-7.029,41.907,41.907,0,0,0-9.84-4.006,37.722,37.722,0,0,0-9.43-1.285h-56.66v39.305h56.66a11.285,11.285,0,0,1,9.06,4.157q3.51,4.159,3.51,11.565v53.213q0,7.107-3.33,11.489a10.92,10.92,0,0,1-9.24,4.384h-56.66a11.377,11.377,0,0,1-9.07-4.308q-3.615-4.308-3.62-11.565V24.446h-31.41V201.773a74.11,74.11,0,0,0,2.05,18.217,57.89,57.89,0,0,0,5.5,14.21,44.7,44.7,0,0,0,17.28,17.46,41.8,41.8,0,0,0,9.84,4.007,37.57,37.57,0,0,0,9.43,1.285h56.66a37.852,37.852,0,0,0,25.8-9.449,43.354,43.354,0,0,0,8.33-9.9,61.354,61.354,0,0,0,5.62-11.716,73.637,73.637,0,0,0,4.23-24.112V148.56Zm162.99-26.077a51.538,51.538,0,0,0-10.81-16.781,40.206,40.206,0,0,0-14.02-9.3,39.745,39.745,0,0,0-14.07-2.872h-56.67q-11.835,0-20.12,5.442a44.787,44.787,0,0,0-13.41,13.53,58.161,58.161,0,0,0-7.43,17.536,74.868,74.868,0,0,0-2.29,17.612v55.178q0,14.819,4.35,25.171a51.157,51.157,0,0,0,10.81,16.78,40.8,40.8,0,0,0,28.09,12.17h56.67V219.46h-56.43a12.513,12.513,0,0,1-9.72-4.384q-3.93-4.381-3.93-12.245V147.955a20.463,20.463,0,0,1,3.5-12.169,11.466,11.466,0,0,1,9.91-4.913h56.67a12.288,12.288,0,0,1,9.48,4.384q3.93,4.386,3.93,12.094a20.394,20.394,0,0,1-3.51,12.169,11.444,11.444,0,0,1-9.9,4.913h-56.67v37.34h56.67q11.835,0,20.11-5.442a44.765,44.765,0,0,0,13.41-13.53,57.856,57.856,0,0,0,7.43-17.536,74.9,74.9,0,0,0,2.3-17.612Q1508.55,132.839,1504.2,122.483Zm139.79-28.95h-70.92a37.871,37.871,0,0,0-9.36,1.285,41.532,41.532,0,0,0-9.91,4.006,44.7,44.7,0,0,0-17.28,17.46,58.1,58.1,0,0,0-5.5,14.135,73.214,73.214,0,0,0-2.05,18.141V256.952h31.41V148.56q0-7.71,3.26-11.716t9.67-4.006h70.68V93.533Z"/>
  <path id="NumberLand_copy" data-name="NumberLand copy" class="cls-5" d="M1827.28,217.646H1699.57V40.168h-31.41v196.98a24.893,24.893,0,0,0,1.2,7.861,20.217,20.217,0,0,0,3.33,6.274,15.6,15.6,0,0,0,5.01,4.157,13.381,13.381,0,0,0,6.28,1.512h143.3V217.646Zm154.41-69.993q0-14.814-4.35-25.17a51.538,51.538,0,0,0-10.81-16.781,40.206,40.206,0,0,0-14.02-9.3,39.788,39.788,0,0,0-14.07-2.872h-68.99v37.34h68.99a12.011,12.011,0,0,1,9.6,4.535q3.81,4.535,3.81,12.245v54.876a20.052,20.052,0,0,1-3.51,12.094,11.5,11.5,0,0,1-9.9,4.837h-56.43a12.73,12.73,0,0,1-9.6-4.308q-4.05-4.308-4.05-12.018a20.464,20.464,0,0,1,3.5-12.17,11.466,11.466,0,0,1,9.91-4.913h56.67V148.56h-56.67q-11.85,0-20.12,5.442a44.787,44.787,0,0,0-13.41,13.53,58.036,58.036,0,0,0-7.43,17.612,75.788,75.788,0,0,0-2.29,17.687q0,14.819,4.34,25.171a51.334,51.334,0,0,0,10.82,16.78,40.8,40.8,0,0,0,28.09,12.17h56.67q11.835,0,20.11-5.443a44.753,44.753,0,0,0,13.41-13.53,57.846,57.846,0,0,0,7.43-17.536,74.883,74.883,0,0,0,2.3-17.612V147.653Zm171.57,18.594a98.365,98.365,0,0,0-2.66-23.885,75.879,75.879,0,0,0-7.19-18.67,59.184,59.184,0,0,0-10.39-13.757,62.751,62.751,0,0,0-12.32-9.373,51.812,51.812,0,0,0-13.05-5.366,51.173,51.173,0,0,0-12.51-1.663h-70.8a13.157,13.157,0,0,0-6.16,1.512,16.242,16.242,0,0,0-5.08,4.157,19.486,19.486,0,0,0-3.38,6.2,23.438,23.438,0,0,0-1.21,7.634V256.952h31.42V132.838h54.97a24.147,24.147,0,0,1,10.57,2.343,25.055,25.055,0,0,1,8.52,6.727,33.391,33.391,0,0,1,5.74,10.507,42.218,42.218,0,0,1,2.11,13.832v90.7h31.42v-90.7Zm170.84-141.8h-31.41V201.773q0,7.71-3.15,11.792t-9.54,4.081h-56.67c-4.1,0-7.23-1.36-9.36-4.081s-3.2-6.751-3.2-12.094V148.56q0-7.71,3.26-11.716t9.55-4.006H2280V93.533h-56.67a41.188,41.188,0,0,0-14.25,2.872,39.918,39.918,0,0,0-14.32,9.448,52.528,52.528,0,0,0-11,17.083q-4.41,10.509-4.41,25.624v53.213a73.317,73.317,0,0,0,1.03,11.716,71.9,71.9,0,0,0,3.2,12.4,61.958,61.958,0,0,0,5.62,11.716,43.651,43.651,0,0,0,8.34,9.9,37.851,37.851,0,0,0,25.79,9.449H2280a38.191,38.191,0,0,0,9.48-1.285,41.432,41.432,0,0,0,9.91-4.007,45.512,45.512,0,0,0,9.37-7.029,44.073,44.073,0,0,0,7.85-10.431,59.938,59.938,0,0,0,5.44-14.21,74.6,74.6,0,0,0,2.05-18.217V24.446Z"/>
</svg>
