<svg width="68" height="68" viewBox="0 0 68 68" fill="none" xmlns="http://www.w3.org/2000/svg">
<path d="M36 6.57706C43.475 4.73715 58.54 6.24588 59 27" stroke="#FFBA53" stroke-width="4" stroke-linecap="round"/>
<path d="M36 15.3297C40.225 14.2784 48.74 15.1405 49 27" stroke="#FFBA53" stroke-width="4" stroke-linecap="round"/>
<path d="M10.2507 12.8768L10.2508 12.8767C10.4271 12.7004 10.5328 12.595 10.6265 12.5089C13.0336 10.2971 16.7334 10.2971 19.1405 12.5089C19.2342 12.595 19.34 12.7004 19.5163 12.8767L19.5164 12.8769L23.6795 17.04C26.1337 19.4942 26.8356 23.2004 25.4487 26.382C24.2673 29.0925 24.8652 32.25 26.956 34.3407L33.747 41.1317C35.8377 43.2225 38.9952 43.8204 41.7057 42.6389C44.8873 41.2521 48.5935 41.954 51.0477 44.4082L55.2106 48.5711L55.2107 48.5712C55.3872 48.7476 55.4926 48.8534 55.5788 48.9472C57.7906 51.3542 57.7906 55.0541 55.5788 57.4611L56.6833 58.476L55.5788 57.4611C55.4926 57.5549 55.3871 57.6608 55.2107 57.8371L55.2106 57.8373L52.668 60.3799C50.4718 62.5761 47.3058 63.498 44.2739 62.8243C24.7998 58.4967 9.59096 43.2879 5.26339 23.8138C4.58963 20.7819 5.51157 17.6159 7.70775 15.4197L10.2507 12.8768Z" stroke="#009CD7" stroke-width="3" stroke-linecap="round"/>
</svg>
