<svg width="74" height="71" viewBox="0 0 74 71" fill="none" xmlns="http://www.w3.org/2000/svg">
<path d="M8.82983 17.0498L8.54044 18.9371L10.4425 18.7715C12.8773 18.5597 15.9816 18.5583 20.2817 18.5583H26.2503C30.4537 18.5583 33.5154 18.5595 35.9279 18.7579C38.3226 18.9548 39.9447 19.3384 41.2931 20.0298C43.8178 21.3243 45.8722 23.391 47.1603 25.935C47.849 27.2952 48.2307 28.9312 48.4265 31.3432C48.6237 33.7725 48.6249 36.855 48.6249 41.0846V49.19C48.6249 50.0468 48.6245 50.4233 48.6098 50.7341C48.3748 55.7295 45.462 60.0059 41.2838 62.1468L39.0909 63.2705L41.0961 64.7025L45.6995 67.9899C49.9222 71.0054 55.4741 66.6511 53.5457 61.8312C52.9687 60.3889 54.0309 58.819 55.5859 58.819H57.6062C65.4278 58.819 71.769 52.4797 71.769 44.6591V30.4662V30.3974C71.769 25.7559 71.769 22.1807 71.5353 19.3209C71.299 16.4295 70.8164 14.1377 69.7758 12.0959C68.0226 8.65568 65.225 5.85877 61.7841 4.10595C59.742 3.06567 57.4498 2.58315 54.5578 2.34692C51.6975 2.11327 48.1215 2.11328 43.4791 2.11328H43.4102H36.6954H36.6264C31.984 2.11328 28.4081 2.11327 25.5478 2.34692C22.6558 2.58315 20.3636 3.06567 18.3214 4.10595C14.8806 5.85877 12.083 8.65568 10.3298 12.0959C9.57711 13.5727 9.11671 15.179 8.82983 17.0498Z" stroke="#009CD7" stroke-width="3"/>
<path fill-rule="evenodd" clip-rule="evenodd" d="M39.7587 30.3135C41 32.7869 41 36.0248 41 42.5007V48.742C41 49.3887 41 49.712 40.9873 49.9852C40.7095 55.9414 36.0162 60.7065 30.1497 60.9884C29.8805 61.0014 29.5253 61.0014 28.8147 61.0014L28.6324 61.0016C26.3085 61.0167 24.0448 61.7532 22.1451 63.1123L22.0243 63.1996L16.0776 67.5122C14.0391 68.9905 11.3603 66.8555 12.2907 64.4939C12.9497 62.8211 11.7363 61.0014 9.96166 61.0014H8.59099C3.84632 61.0014 0 57.0963 0 52.2791V42.5007C0 36.0248 0 32.7869 1.24131 30.3135C2.33321 28.1378 4.07548 26.3689 6.21844 25.2603C8.65466 24 11.8438 24 18.2222 24H22.7778C29.1562 24 32.3453 24 34.7816 25.2603C36.9245 26.3689 38.6668 28.1378 39.7587 30.3135ZM11.7143 47.4667C13.3317 47.4667 14.6429 46.1534 14.6429 44.5333C14.6429 42.9133 13.3317 41.6 11.7143 41.6C10.0969 41.6 8.78572 42.9133 8.78572 44.5333C8.78572 46.1534 10.0969 47.4667 11.7143 47.4667ZM23.4286 44.5333C23.4286 46.1534 22.1174 47.4667 20.5 47.4667C18.8826 47.4667 17.5714 46.1534 17.5714 44.5333C17.5714 42.9133 18.8826 41.6 20.5 41.6C22.1174 41.6 23.4286 42.9133 23.4286 44.5333ZM29.2857 47.4667C30.9031 47.4667 32.2143 46.1534 32.2143 44.5333C32.2143 42.9133 30.9031 41.6 29.2857 41.6C27.6683 41.6 26.3571 42.9133 26.3571 44.5333C26.3571 46.1534 27.6683 47.4667 29.2857 47.4667Z" fill="url(#paint0_linear_1111_485)"/>
<defs>
<linearGradient id="paint0_linear_1111_485" x1="94.6132" y1="67.9999" x2="156.57" y2="3.86286" gradientUnits="userSpaceOnUse">
<stop stop-color="#FFBA53"/>
<stop offset="1" stop-color="#2ECDFF"/>
</linearGradient>
</defs>
</svg>
