<svg width="82" height="78" viewBox="0 0 82 78" fill="none" xmlns="http://www.w3.org/2000/svg">
<path fill-rule="evenodd" clip-rule="evenodd" d="M13.8255 29.7141C13.8255 14.408 26.2336 2 41.5397 2C56.8457 2 69.2537 14.408 69.2537 29.7141C69.2537 31.0668 69.1567 32.3973 68.9691 33.6991C68.5679 34.7649 68.1064 35.8009 67.5888 36.8032C63.434 44.848 55.6644 50.7174 46.44 52.2696C44.8481 52.5375 43.2112 52.6772 41.5398 52.6772C39.5854 52.6772 37.678 52.4862 35.8345 52.1225C26.8004 50.3403 19.2497 44.3985 15.271 36.369C14.8415 35.5022 14.4536 34.6111 14.11 33.6981C13.9225 32.3966 13.8255 31.0664 13.8255 29.7141Z" stroke="#009CD7" stroke-width="3"/>
<path d="M10.9793 45.7837C10.6985 46.2589 10.4028 46.7714 10.0842 47.3234L4.30075 57.3406C3.58662 58.5772 2.92629 59.7205 2.54558 60.667C2.17268 61.594 1.70305 63.2016 2.74086 64.6896C3.79182 66.1964 5.47882 66.2857 6.4786 66.236C7.49086 66.1857 8.77769 65.9324 10.16 65.6603L12.6662 65.1673C14.0556 64.894 14.8799 64.7364 15.4916 64.6944C15.7709 64.6751 15.9209 64.6881 15.9947 64.7005C16.0286 64.7062 16.0486 64.7129 16.0486 64.7129L16.0579 64.7172L16.0663 64.7231C16.0663 64.7231 16.0821 64.7371 16.104 64.7636C16.1517 64.8213 16.2378 64.9447 16.3609 65.1963C16.6303 65.747 16.9059 66.5397 17.3639 67.8796L18.19 70.2962C18.6456 71.6295 19.0696 72.8707 19.5322 73.7726C19.9891 74.6632 20.9099 76.0795 22.7403 76.2363C24.5479 76.3911 25.7053 75.1806 26.3217 74.3941C26.951 73.5911 27.611 72.4475 28.3248 71.2108L33.992 61.3949C34.3294 60.8106 34.6378 60.2765 34.9157 59.7857C33.9397 59.6791 32.9758 59.5313 32.0256 59.3439C23.3873 57.6397 15.9281 52.6728 10.9793 45.7837Z" stroke="#009CD7" stroke-width="3"/>
<path d="M71.2799 46.4502C71.4237 46.6981 71.5717 46.9547 71.7249 47.2202L77.5679 57.3408C78.2819 58.5772 78.9423 59.7206 79.323 60.667C79.6959 61.594 80.1655 63.2016 79.1277 64.6896C78.0767 66.1964 76.3897 66.2857 75.3899 66.236C74.3777 66.1857 73.0909 65.9324 71.7085 65.6603L69.2023 65.1673C67.8129 64.894 66.9886 64.7364 66.377 64.6944C66.0977 64.6751 65.9477 64.6881 65.8739 64.7005C65.84 64.7062 65.82 64.7129 65.82 64.7129L65.8107 64.7172L65.8063 64.72L65.8023 64.7231C65.8023 64.7231 65.7865 64.7371 65.7646 64.7636C65.7169 64.8213 65.6307 64.9447 65.5077 65.1963C65.2383 65.747 64.9627 66.5397 64.5047 67.8796L63.6785 70.2963C63.223 71.6295 62.7989 72.8707 62.3364 73.7726C61.8795 74.6632 60.9587 76.0795 59.1282 76.2363C57.3207 76.3911 56.1633 75.1806 55.5469 74.3941C54.9176 73.5911 54.2576 72.4476 53.5438 71.2108L47.8763 61.3945C47.5576 60.8425 47.2646 60.335 46.9987 59.8666C47.9397 59.7872 48.8702 59.6695 49.7886 59.5149C58.5396 58.0423 66.1518 53.2356 71.2799 46.4502Z" stroke="#009CD7" stroke-width="3"/>
<path d="M39.6609 18.0958C40.3088 16.3631 42.7597 16.3631 43.4075 18.0958L44.5893 21.2561C44.8703 22.0078 45.5735 22.5187 46.3753 22.5537L49.746 22.701C51.5941 22.7818 52.3515 25.1127 50.9038 26.2643L48.2634 28.3647C47.6353 28.8643 47.3667 29.691 47.5812 30.4643L48.4827 33.7156C48.977 35.4982 46.9942 36.9388 45.4516 35.9178L42.638 34.0557C41.9688 33.6128 41.0996 33.6128 40.4304 34.0557L37.6168 35.9178C36.0742 36.9388 34.0914 35.4982 34.5857 33.7156L35.4873 30.4643C35.7017 29.691 35.4331 28.8643 34.8051 28.3647L32.1646 26.2643C30.717 25.1127 31.4743 22.7818 33.3224 22.701L36.6932 22.5537C37.4949 22.5187 38.1981 22.0078 38.4792 21.2561L39.6609 18.0958Z" fill="#FFBA53"/>
</svg>
